<svg version="1.1" id="Layer_1" xmlns="http://www.w3.org/2000/svg" xmlns:xlink="http://www.w3.org/1999/xlink" x="0px" y="0px"
	 width="100%" viewBox="0 0 1600 896" enable-background="new 0 0 1600 896" xml:space="preserve">
<path fill="#051A2F" opacity="1.000000" stroke="none" 
	d="
M1052.000000,897.000000 
	C701.333313,897.000000 351.166656,897.000000 1.000000,897.000000 
	C1.000000,598.333313 1.000000,299.666656 1.000000,1.000000 
	C534.333313,1.000000 1067.666626,1.000000 1601.000000,1.000000 
	C1601.000000,299.666656 1601.000000,598.333313 1601.000000,897.000000 
	C1418.166626,897.000000 1235.333374,897.000000 1052.000000,897.000000 
M356.159424,360.404633 
	C355.130615,360.217529 354.101776,360.030396 352.385773,359.296326 
	C346.571442,358.820251 340.757111,358.344208 334.228912,357.635101 
	C332.570038,357.647125 330.862213,357.405701 329.260742,357.714966 
	C322.162384,359.085571 315.094574,360.614227 307.296326,362.059784 
	C306.201874,362.510803 305.107422,362.961823 303.405121,363.357056 
	C302.759705,363.835632 302.114288,364.314209 300.957947,364.743378 
	C300.640198,364.862274 300.322449,364.981171 299.330200,365.158844 
	C297.781769,366.060303 296.233307,366.961761 294.077179,367.952454 
	C293.390411,368.392609 292.703644,368.832764 291.344360,369.314453 
	C286.776001,372.431671 282.207642,375.548859 277.495697,378.764038 
	C275.620453,370.561737 276.324097,368.538269 282.527832,364.647583 
	C288.104431,361.150177 293.772278,357.798248 299.946625,354.295685 
	C300.299103,354.179840 300.651550,354.063995 301.576294,353.899628 
	C301.873566,353.666565 302.170868,353.433502 303.243835,353.185242 
	C304.039886,352.981537 304.850586,352.822571 305.629791,352.567352 
	C315.100372,349.465057 324.565308,346.354980 333.444702,354.092133 
	C333.543457,354.178131 333.766052,354.122009 334.362061,354.461517 
	C334.888428,354.459595 335.414825,354.457672 336.611572,354.666748 
	C338.213806,353.870483 339.816040,353.074219 341.956848,351.851257 
	C346.602234,347.379639 351.741211,347.923706 357.483795,349.605865 
	C370.664215,353.466705 382.353729,360.170929 394.127808,367.905182 
	C394.732330,368.279236 395.336853,368.653320 396.250336,369.594360 
	C397.464691,370.472229 398.679077,371.350067 400.217194,372.803589 
	C403.558868,375.174866 406.900543,377.546143 410.484314,380.467621 
	C411.289062,381.062866 412.093842,381.658112 413.267883,382.812683 
	C413.451294,382.940277 413.634705,383.067841 413.659393,383.222778 
	C413.659393,383.222778 413.804230,383.179016 414.160400,383.768097 
	C414.680206,384.210571 415.200043,384.653046 415.909454,385.725281 
	C416.230957,386.012634 416.552429,386.299988 416.974976,387.252167 
	C417.509216,388.487152 418.043457,389.722168 418.403259,391.861481 
	C418.572021,397.555969 418.740784,403.250488 418.951996,408.961151 
	C418.951996,408.961151 418.927307,408.919434 418.247650,409.096985 
	C412.622528,412.342010 407.101166,415.790833 401.322174,418.733734 
	C398.945404,419.944122 395.981750,420.704651 393.340240,420.571869 
	C381.396088,419.971588 371.262665,428.600800 371.107086,439.906525 
	C370.948181,451.455780 380.533051,460.262665 392.426666,460.318909 
	C400.181335,460.355560 407.929169,461.501862 415.683594,462.105347 
	C418.591003,462.331604 419.486603,463.843262 419.611084,466.692871 
	C419.906647,473.459106 419.275909,479.899384 415.443146,485.751953 
	C411.806152,491.305664 408.323303,496.960297 404.214783,502.952881 
	C399.469330,507.618378 394.723877,512.283875 389.312958,517.137756 
	C380.547821,521.927856 371.782715,526.717957 362.285522,531.447266 
	C356.340454,532.844788 350.395355,534.242310 344.086914,535.081177 
	C342.015564,533.254150 339.944214,531.427124 337.880737,529.606995 
	C333.841461,534.122681 324.421997,537.505310 318.953918,536.298462 
	C312.339478,534.838623 305.776855,533.143860 298.857239,530.994873 
	C297.616882,530.564880 296.376526,530.134888 294.668732,529.282349 
	C293.519073,528.799072 292.369446,528.315735 290.786713,527.303772 
	C284.816528,523.105713 278.487274,519.330872 272.945007,514.628418 
	C257.705719,501.698303 250.585831,483.982025 244.911804,465.481506 
	C244.431137,463.914185 242.770142,462.708893 241.657455,461.335449 
	C240.432861,463.099915 238.387848,464.761169 238.150177,466.649872 
	C237.613724,470.912689 237.813263,475.295135 238.009872,479.615417 
	C238.195709,483.698761 237.046265,486.693176 233.029144,488.394043 
	C224.518799,491.997284 220.601151,502.735016 224.563095,512.226624 
	C227.228531,518.612122 236.384766,525.414795 246.731384,521.879272 
	C248.920685,521.131226 252.111908,521.506226 254.206146,522.590698 
	C265.432678,528.403931 276.547455,534.452393 287.465088,540.823608 
	C289.284668,541.885437 290.718414,544.844482 290.980072,547.084473 
	C291.536957,551.851562 290.771149,556.787231 291.476044,561.515320 
	C291.722107,563.165710 294.599487,565.326843 296.461212,565.527283 
	C297.780945,565.669434 299.630096,563.062988 300.806488,561.378601 
	C301.329895,560.629089 300.778198,559.128845 300.858582,557.123962 
	C300.993988,555.534058 301.129425,553.944092 301.223969,552.833801 
	C306.030273,552.123291 310.202087,551.312683 314.409882,551.020691 
	C315.467072,550.947266 317.184692,552.319275 317.624023,553.417175 
	C318.198303,554.852112 317.907654,556.681213 317.807709,558.329773 
	C317.308105,566.568054 321.011108,572.555115 328.235779,575.921631 
	C335.531647,579.321350 342.726074,578.625732 349.740265,572.962036 
	C354.852264,569.850159 359.964264,566.738281 365.834961,563.515991 
	C377.106323,556.998657 388.377716,550.481262 400.039062,543.533691 
	C400.371643,543.070679 400.704224,542.607727 401.791992,542.080566 
	C409.232880,539.336975 415.554535,535.996765 414.970917,526.159851 
	C414.883698,524.689209 419.716949,522.403381 422.590881,521.439148 
	C425.070618,520.607178 428.014008,521.258667 430.730927,521.014709 
	C442.718903,519.938049 450.179199,505.816681 443.948456,494.839539 
	C443.078491,493.306854 442.190369,491.784485 440.931763,489.599457 
	C446.692322,490.995087 447.443604,488.006500 447.450867,483.837402 
	C447.486053,463.678162 447.665314,443.519165 447.784607,423.360016 
	C447.800537,420.667694 448.094727,417.504761 444.190704,417.527924 
	C440.084167,417.552277 440.347534,420.779205 440.356812,423.705872 
	C440.419678,443.532990 440.454376,463.360168 440.464966,483.187347 
	C440.465851,484.877899 440.224884,486.568604 440.080414,488.468353 
	C430.854828,484.821655 430.855743,484.821655 430.851746,476.067291 
	C430.840393,451.074615 430.880859,426.081726 430.758575,401.089569 
	C430.740662,397.424469 431.309753,395.322906 435.431549,393.921326 
	C444.378113,390.879089 447.880707,382.418213 444.633514,373.781403 
	C441.560883,365.608856 432.467621,361.149597 424.211700,364.389465 
	C420.728973,365.756165 418.318665,365.046936 415.450500,363.333649 
	C398.298859,353.088104 381.019104,343.055817 363.921509,332.721741 
	C358.551331,329.475952 353.652161,325.458984 348.462097,321.904938 
	C343.187012,318.292694 337.772919,315.022095 330.255341,317.954132 
	C327.861481,319.370789 325.381348,320.661774 323.092957,322.232147 
	C319.158447,324.932098 315.569702,328.213989 311.425964,330.512848 
	C305.017426,334.068176 298.248718,336.987549 298.351196,345.936829 
	C298.352722,346.071228 298.171844,346.207733 297.465485,346.432373 
	C296.557648,347.225342 295.649780,348.018311 294.355255,348.906860 
	C294.355255,348.906860 294.035187,349.143951 293.362427,349.303253 
	C288.109406,352.472534 282.856415,355.641815 276.794983,359.298828 
	C276.794983,354.538361 276.638977,351.056946 276.835388,347.595490 
	C277.068756,343.483063 275.395691,341.230621 271.227753,341.110657 
	C266.564087,340.976440 265.946075,344.016815 265.972717,347.757477 
	C266.043762,357.729736 265.413208,367.744324 266.133453,377.664246 
	C266.877014,387.905640 264.629211,396.971069 258.085968,405.320923 
	C249.402496,404.836334 249.080215,404.509888 249.080109,396.171875 
	C249.079971,385.519196 249.100464,374.866455 249.074417,364.213867 
	C249.061386,358.885406 247.415741,356.929901 243.152802,357.001617 
	C238.859268,357.073883 237.120789,359.098175 237.106995,364.280487 
	C237.076447,375.765289 237.113724,387.250275 237.108200,398.735168 
	C237.102066,411.503479 237.042465,411.683197 249.342072,415.260559 
	C253.467651,416.460480 254.381470,417.921448 253.363190,422.240814 
	C249.097290,440.335968 250.133636,458.132782 257.956665,476.454926 
	C265.899384,471.653687 273.486267,467.067566 281.618774,462.147552 
	C281.770782,461.776764 281.922791,461.406006 282.069580,461.166321 
	C282.069580,461.166321 282.192749,461.211456 282.977661,461.242096 
	C285.143951,461.036743 287.309113,460.818054 289.476837,460.629272 
	C292.311646,460.382416 295.148529,460.159302 298.715912,459.892609 
	C303.390015,457.009949 308.064117,454.127319 312.957703,451.109314 
	C312.957703,469.889862 312.957703,488.931305 312.270264,507.794708 
	C296.113220,502.190674 283.898346,491.704620 274.824951,476.720825 
	C271.067780,479.035217 267.588806,480.914856 264.482239,483.283020 
	C263.736053,483.851868 263.615479,486.418610 264.238800,487.432068 
	C275.466522,505.687164 290.928223,518.469299 312.803406,524.025574 
	C318.878387,524.908264 324.953400,525.790955 331.828979,526.837830 
	C337.094971,526.538452 342.424957,526.652100 347.612885,525.848694 
	C356.790314,524.427429 365.646149,521.820312 373.955597,516.196289 
	C374.636932,515.776428 375.318268,515.356567 376.542480,514.886597 
	C376.790833,514.632080 377.039185,514.377563 377.920776,513.884705 
	C390.614441,505.986267 400.515350,495.525177 407.425415,482.202240 
	C412.807617,471.825104 412.139191,470.561676 400.531219,469.615814 
	C397.766693,469.390533 396.383362,470.226654 395.166626,472.730133 
	C389.370300,484.656250 381.239380,494.638397 369.238159,501.953888 
	C360.877716,506.464691 352.307587,510.331421 341.695251,511.098816 
	C343.104187,503.355652 339.017303,495.614716 344.970917,488.825073 
	C345.906311,487.758331 345.897186,485.682190 345.950958,484.060394 
	C346.072327,480.399963 345.943359,476.731781 345.945099,473.066772 
	C345.957123,448.076843 345.926239,423.086700 346.040558,398.097229 
	C346.060913,393.643982 344.646240,390.653229 340.023956,389.780670 
	C334.598541,388.756531 331.371155,391.898438 331.368408,398.328369 
	C331.356873,425.317444 331.406342,452.306580 331.360657,479.295532 
	C331.352966,483.836945 331.033539,488.289581 335.032318,491.700958 
	C335.815735,492.369324 335.888428,494.139374 335.892029,495.402405 
	C335.902435,499.062561 335.461700,502.737091 335.663513,506.380188 
	C335.900085,510.651062 334.253876,512.572510 329.241638,511.997955 
	C328.504242,512.036499 327.766846,512.075073 326.358704,511.995972 
	C325.906708,512.018799 325.454712,512.041626 324.485931,511.686554 
	C323.060791,511.136078 321.635681,510.585632 319.892365,509.912262 
	C319.892365,507.611969 319.887604,505.294952 319.893066,502.977936 
	C319.962921,473.383820 319.976776,443.789246 320.199280,414.196259 
	C320.220184,411.418976 321.345123,408.571930 322.338257,405.898682 
	C323.761841,402.066925 323.751984,398.250336 320.250214,396.115326 
	C318.360138,394.962952 314.725861,395.072784 312.675476,396.141815 
	C309.266388,397.919312 308.903229,401.942535 310.736359,404.896301 
	C315.886719,413.195129 311.805542,421.851562 312.642090,430.583801 
	C307.630188,422.979004 300.232239,420.102905 291.798615,417.836090 
	C287.616821,415.857544 283.477692,413.781738 279.243011,411.923767 
	C273.225281,409.283447 273.061493,409.163177 277.016846,403.608307 
	C280.244995,399.074799 283.755280,394.742218 287.759766,389.986725 
	C295.173920,385.654144 302.588074,381.321564 310.779877,376.945190 
	C323.990875,372.383514 337.448486,372.162659 351.793427,374.908203 
	C354.611511,375.839844 357.489075,376.623474 360.237549,377.728271 
	C373.214996,382.944702 383.833710,391.269989 392.006775,402.588898 
	C394.351929,405.836700 396.670380,406.400604 399.857513,404.116730 
	C400.800354,403.441132 401.811676,402.815216 402.874847,402.361694 
	C406.524231,400.805023 407.008911,398.400665 404.844696,395.293915 
	C392.933258,378.195160 377.382355,366.140930 356.745575,360.724731 
	C356.745575,360.724731 356.574646,360.916504 356.159424,360.404633 
M613.241821,427.731232 
	C610.894592,430.187744 608.547363,432.644287 606.086487,435.219727 
	C601.208740,425.059998 592.767944,420.921204 581.887817,420.781647 
	C571.195618,420.644562 562.775391,425.161255 555.345825,433.086823 
	C555.345825,429.747253 555.345825,426.407715 555.345825,423.240845 
	C549.022095,423.240845 543.279419,423.240845 537.622803,423.240845 
	C537.622803,449.493744 537.622803,475.402557 537.622803,501.273224 
	C543.842163,501.273224 549.725464,501.273224 555.850525,501.273224 
	C555.850525,487.349243 555.774231,473.858856 555.905212,460.370453 
	C555.937256,457.076660 556.288635,453.695618 557.116333,450.516968 
	C559.488586,441.406189 567.180176,436.607117 576.925903,437.804535 
	C585.473877,438.854797 589.974304,444.379456 590.191223,454.224182 
	C590.275635,458.054535 590.175415,461.888733 590.174011,465.721191 
	C590.169678,477.512207 590.172485,489.303253 590.172485,501.416687 
	C596.458313,501.416687 602.351746,501.416687 608.755188,501.416687 
	C608.755188,496.380615 608.739502,491.589783 608.758362,486.799042 
	C608.799805,476.302246 608.484680,465.786591 609.013245,455.313904 
	C609.568604,444.309052 617.305298,437.115265 627.228577,437.409821 
	C638.082947,437.732025 642.916931,443.399811 642.981812,456.070404 
	C643.044983,468.401123 643.002686,480.732361 643.006409,493.063385 
	C643.007202,495.829773 643.006531,498.596161 643.006531,501.352478 
	C649.458252,501.352478 655.164062,501.352478 660.915894,501.352478 
	C660.915894,482.165100 661.483459,463.337433 660.721863,444.563690 
	C660.189453,431.438110 651.179321,422.678253 638.827759,421.118347 
	C629.734558,419.969879 621.253174,421.649170 613.241821,427.731232 
M817.148987,534.602478 
	C834.923096,529.316040 843.856750,517.648743 843.971375,499.025238 
	C844.121094,474.695099 844.049866,450.363556 844.052002,426.032623 
	C844.052063,425.092285 843.826843,424.151947 843.709717,423.235962 
	C837.815308,423.235962 832.233154,423.235962 826.363953,423.235962 
	C826.159546,426.866882 825.972778,430.184631 825.786011,433.502380 
	C824.329041,433.291443 824.010010,432.695618 823.615540,432.154907 
	C812.487000,416.902069 787.089966,417.354187 775.023865,430.775269 
	C763.346497,443.763916 761.503113,459.135803 765.846375,475.210693 
	C771.326721,495.494263 789.687927,506.230865 808.225525,500.841736 
	C815.481689,498.732208 821.007812,494.107513 825.773315,488.131775 
	C825.813843,493.737122 825.900269,499.222839 824.970642,504.530609 
	C823.369019,513.675232 816.988220,519.113525 807.841064,519.970398 
	C798.132812,520.879883 788.942200,519.231201 780.389404,514.403381 
	C779.012451,513.626099 777.557007,512.987915 775.993225,512.213928 
	C773.397461,516.906128 771.014832,521.213074 768.479431,525.796143 
	C783.344849,536.081360 799.367432,537.998047 817.148987,534.602478 
M1287.679077,395.609467 
	C1286.293091,394.722260 1284.984497,393.270477 1283.504639,393.067200 
	C1280.563477,392.663239 1277.527954,392.942932 1274.531372,392.946991 
	C1265.600952,392.959076 1265.764771,393.024323 1262.577271,401.188843 
	C1252.116699,427.982819 1241.509277,454.719452 1230.997925,481.493683 
	C1228.477661,487.913239 1226.110718,494.393036 1223.311523,501.802307 
	C1229.301270,501.802307 1234.242065,501.643250 1239.166016,501.861725 
	C1242.139160,501.993622 1243.796509,500.930359 1244.755371,498.146271 
	C1246.596802,492.799805 1248.356812,487.393402 1250.728149,482.279694 
	C1251.481689,480.654633 1254.047729,478.904480 1255.817261,478.869354 
	C1269.629517,478.595306 1283.450439,478.794525 1297.267090,478.677063 
	C1300.288086,478.651398 1301.741333,479.862579 1302.706055,482.604492 
	C1304.582031,487.936340 1306.647461,493.209137 1308.865845,498.407623 
	C1309.425537,499.719025 1310.809204,501.555634 1311.900146,501.616669 
	C1317.638794,501.937775 1323.404907,501.766998 1330.304199,501.766998 
	C1315.938477,465.988495 1301.956909,431.166412 1287.679077,395.609467 
M1038.829346,453.669067 
	C1038.739624,451.902344 1038.649902,450.135651 1038.538574,447.941528 
	C1033.870361,447.941528 1029.719727,448.126465 1025.593994,447.884552 
	C1022.132690,447.681610 1020.898376,448.853027 1020.990662,452.401306 
	C1021.207092,460.724640 1021.206360,469.062164 1020.942444,477.382812 
	C1020.884338,479.215729 1019.851746,481.944489 1018.448914,482.664001 
	C1004.984619,489.569580 987.612854,488.179749 976.417175,478.037445 
	C965.635376,468.270172 962.713318,455.641602 963.957153,441.681671 
	C965.953369,419.278290 985.567871,404.173370 1007.514893,408.891479 
	C1014.799072,410.457428 1021.608398,414.232544 1029.287964,417.254700 
	C1031.829224,413.528168 1034.866333,409.074432 1037.820435,404.742615 
	C1020.338806,385.910889 981.891846,385.951263 962.542114,404.462219 
	C947.188477,419.150238 942.508850,437.417572 945.730469,457.878845 
	C948.446228,475.128052 957.077209,488.896118 972.768555,497.068970 
	C994.069031,508.163422 1014.892334,505.027924 1035.091431,493.433624 
	C1037.901978,491.820282 1038.948853,489.833740 1038.896973,486.610046 
	C1038.725586,475.951752 1038.831055,465.289001 1038.829346,453.669067 
M727.183594,456.056732 
	C716.632874,453.972198 706.073059,453.242920 695.503723,455.911682 
	C683.505981,458.941162 676.826782,467.018250 676.432556,478.934845 
	C676.072083,489.830505 682.563599,498.769623 694.169983,501.906128 
	C707.705078,505.563812 720.098816,503.315979 730.456543,492.082245 
	C730.648560,495.593689 730.805664,498.466248 730.968933,501.451660 
	C736.965820,501.451660 742.559387,501.451660 748.681641,501.451660 
	C748.681641,497.237518 748.722595,493.289001 748.674316,489.341583 
	C748.495178,474.701233 748.630127,460.045380 747.957397,445.427124 
	C747.567017,436.943573 742.756409,430.422791 735.571411,425.978058 
	C720.878357,416.888641 693.930603,420.007904 681.286438,432.230499 
	C683.919617,436.147400 686.574463,440.096619 689.227783,444.043518 
	C699.932800,437.083984 710.744080,434.961884 720.095825,437.908081 
	C727.582581,440.266724 731.828369,446.785278 730.628967,454.432343 
	C730.517761,455.141479 728.991150,455.628632 727.183594,456.056732 
M897.631653,503.528748 
	C910.032410,503.477173 921.509766,500.955780 930.827759,491.821075 
	C927.720642,487.725067 925.049133,484.203400 922.274597,480.545868 
	C910.801575,488.888031 898.986084,491.433014 886.556091,484.216309 
	C880.803406,480.876373 877.853027,475.464386 877.839172,467.984955 
	C896.935120,467.984955 915.644653,467.984955 934.811340,467.984955 
	C934.507141,462.741150 934.556458,458.061218 933.916809,453.477386 
	C930.199585,426.840393 904.435303,412.834198 880.648804,424.406097 
	C864.645630,432.191467 855.814270,451.690338 859.545349,471.000580 
	C863.458618,491.253479 875.612061,501.858093 897.631653,503.528748 
M1118.438843,468.092194 
	C1121.048706,468.092194 1123.658569,468.092194 1126.739624,468.092194 
	C1127.390869,453.190247 1125.586182,439.801331 1114.432861,429.526917 
	C1098.290161,414.656342 1065.102905,417.995392 1055.559204,443.125549 
	C1049.258545,459.716003 1049.816162,475.940704 1061.205322,490.309082 
	C1074.229370,506.740234 1099.706299,506.814819 1115.108398,497.941071 
	C1118.278931,496.114349 1121.078613,493.644226 1124.075562,491.451385 
	C1120.757812,487.106659 1118.080566,483.600739 1115.446289,480.151031 
	C1093.234863,493.745880 1071.713623,488.293091 1070.706299,468.091675 
	C1086.311646,468.091675 1101.882202,468.091675 1118.438843,468.092194 
M1192.013184,421.093506 
	C1181.054565,419.762024 1171.106812,421.787872 1162.952393,429.814270 
	C1162.094604,430.658539 1161.161621,431.426300 1159.869873,432.581787 
	C1159.695435,429.150299 1159.554321,426.371735 1159.378662,422.915314 
	C1155.238770,422.915314 1151.431763,423.195038 1147.683838,422.843384 
	C1143.156372,422.418610 1141.637817,423.917511 1141.713989,428.603119 
	C1141.979126,444.929810 1141.818237,461.263428 1141.818848,477.594391 
	C1141.819214,485.384399 1141.818970,493.174408 1141.818970,501.769958 
	C1146.174438,501.769958 1150.308228,501.458527 1154.373291,501.853180 
	C1158.884521,502.291138 1160.054321,500.585266 1159.980957,496.257568 
	C1159.758057,483.097260 1159.746094,469.925903 1160.026001,456.766785 
	C1160.280273,444.812744 1168.074707,437.578949 1179.875122,437.751953 
	C1190.567261,437.908691 1195.999390,444.257019 1196.046875,456.764465 
	C1196.087402,467.429413 1196.048828,478.094635 1196.047729,488.759735 
	C1196.046387,502.148346 1196.046265,502.034485 1209.489502,501.895721 
	C1212.970703,501.859772 1214.083862,500.800537 1214.052368,497.311096 
	C1213.904053,480.814911 1214.180176,464.313751 1213.929443,447.820038 
	C1213.711426,433.479401 1206.740967,424.965698 1192.013184,421.093506 
M1342.126221,441.500000 
	C1342.128906,457.494110 1342.132324,473.488220 1342.134399,489.482330 
	C1342.135986,501.952667 1342.137817,501.757812 1354.830811,501.922546 
	C1359.411621,501.981995 1360.800537,500.605682 1360.757690,496.009796 
	C1360.546143,473.353485 1360.661377,450.694153 1360.653442,428.035889 
	C1360.649902,417.873047 1360.649292,407.710052 1360.596558,397.547424 
	C1360.585571,395.443359 1360.971802,392.963013 1357.578979,392.986877 
	C1352.641235,393.021606 1347.703003,392.995789 1342.126465,392.995789 
	C1342.126465,409.268036 1342.126465,424.884003 1342.126221,441.500000 
M499.093933,497.236481 
	C499.214844,498.653931 499.335754,500.071350 499.461029,501.539825 
	C505.569855,501.539825 511.183685,501.539825 517.057983,501.539825 
	C517.057983,475.309204 517.057983,449.267792 517.057983,423.141479 
	C510.953705,423.141479 505.189758,423.141479 499.079407,423.141479 
	C499.079407,447.712891 499.079407,471.999512 499.093933,497.236481 
M357.004303,440.500000 
	C357.006409,455.313477 357.061798,470.127228 356.973236,484.940186 
	C356.951019,488.659454 358.462524,491.166229 362.130096,490.220795 
	C363.715240,489.812164 365.599609,486.713440 365.643982,484.797211 
	C365.956085,471.322357 365.831024,457.837189 365.831512,444.355316 
	C365.832123,428.376892 365.798950,412.398468 365.826172,396.420105 
	C365.832306,392.821686 365.051910,389.835999 360.621826,390.438721 
	C357.208527,390.903137 356.948059,393.709839 356.957245,396.557526 
	C357.003418,410.871582 356.994720,425.185822 357.004303,440.500000 
M250.997910,546.632385 
	C250.358398,547.390137 249.492371,548.049744 249.114807,548.921021 
	C245.698013,556.806030 248.829697,565.736511 256.417114,569.930298 
	C258.312073,570.977722 260.141479,572.270569 262.171478,572.906006 
	C263.757935,573.402527 265.826813,573.597351 267.307037,572.999512 
	C280.123657,567.822876 281.166809,566.122864 280.853149,552.380798 
	C280.837921,551.714478 281.026489,550.960022 280.776978,550.399353 
	C280.195618,549.093201 279.688568,547.536987 278.655060,546.682373 
	C267.648376,537.580566 265.154846,537.458130 253.228088,545.043762 
	C252.666595,545.400940 252.129196,545.796021 250.997910,546.632385 
M511.595367,387.615082 
	C506.272491,385.901306 501.960724,387.665314 498.912842,391.994537 
	C496.131317,395.945496 495.747498,400.358704 498.525116,404.638794 
	C501.249817,408.837341 505.981354,410.785217 510.622009,409.630219 
	C515.649719,408.378876 518.709412,405.071014 519.730164,400.092529 
	C520.741516,395.159973 518.130493,391.080872 511.595367,387.615082 
M218.989304,432.061951 
	C219.747284,448.990784 220.523697,465.918854 221.245682,482.849243 
	C221.370605,485.778748 222.062119,488.574463 225.449554,488.254517 
	C226.354721,488.169006 227.623764,484.654053 227.557434,482.754303 
	C227.146194,470.976105 226.372498,459.210938 225.779556,447.438446 
	C225.445312,440.802307 225.348068,434.151123 224.846603,427.529266 
	C224.754028,426.307037 223.237396,425.192657 222.378052,424.028534 
	C221.125107,425.109589 219.511337,425.985962 218.742371,427.341553 
	C218.203339,428.291779 218.816940,429.895874 218.989304,432.061951 
M1386.020508,491.976868 
	C1386.020508,495.047791 1386.020508,498.118713 1386.020508,501.189636 
	C1386.383545,501.205811 1386.746582,501.221954 1387.109741,501.238098 
	C1387.746826,500.061707 1388.383911,498.885284 1389.131348,497.505096 
	C1390.339233,498.351715 1391.225708,498.973114 1392.104858,499.589325 
	C1393.104004,498.424927 1393.976440,497.408142 1395.174561,496.011780 
	C1395.645142,498.214996 1395.976685,499.767151 1396.308228,501.319336 
	C1396.685059,501.270294 1397.061890,501.221222 1397.438721,501.172180 
	C1397.438721,497.289093 1397.438721,493.406006 1397.438721,488.444153 
	C1395.142700,491.197937 1393.569214,493.085083 1391.726929,495.294739 
	C1390.729492,493.327026 1390.170898,491.932831 1389.364746,490.700500 
	C1388.027466,488.656067 1386.830811,488.725342 1386.020508,491.976868 
M1382.937622,488.980042 
	C1380.889526,488.980042 1378.841431,488.980042 1377.924438,488.980042 
	C1378.843628,492.550934 1379.659302,495.719604 1380.569946,499.257202 
	C1378.168945,499.489868 1376.913940,499.611511 1375.658936,499.733124 
	C1375.662964,500.012695 1375.666992,500.292297 1375.671143,500.571869 
	C1377.614136,500.745453 1379.557251,500.919037 1381.152222,501.061523 
	C1382.059692,496.810181 1382.883545,492.949890 1382.937622,488.980042 
z"/>
<path fill="#F4F6F6" opacity="1.000000" stroke="none" 
	d="
M613.508057,427.493011 
	C621.253174,421.649170 629.734558,419.969879 638.827759,421.118347 
	C651.179321,422.678253 660.189453,431.438110 660.721863,444.563690 
	C661.483459,463.337433 660.915894,482.165100 660.915894,501.352478 
	C655.164062,501.352478 649.458252,501.352478 643.006531,501.352478 
	C643.006531,498.596161 643.007202,495.829773 643.006409,493.063385 
	C643.002686,480.732361 643.044983,468.401123 642.981812,456.070404 
	C642.916931,443.399811 638.082947,437.732025 627.228577,437.409821 
	C617.305298,437.115265 609.568604,444.309052 609.013245,455.313904 
	C608.484680,465.786591 608.799805,476.302246 608.758362,486.799042 
	C608.739502,491.589783 608.755188,496.380615 608.755188,501.416687 
	C602.351746,501.416687 596.458313,501.416687 590.172485,501.416687 
	C590.172485,489.303253 590.169678,477.512207 590.174011,465.721191 
	C590.175415,461.888733 590.275635,458.054535 590.191223,454.224182 
	C589.974304,444.379456 585.473877,438.854797 576.925903,437.804535 
	C567.180176,436.607117 559.488586,441.406189 557.116333,450.516968 
	C556.288635,453.695618 555.937256,457.076660 555.905212,460.370453 
	C555.774231,473.858856 555.850525,487.349243 555.850525,501.273224 
	C549.725464,501.273224 543.842163,501.273224 537.622803,501.273224 
	C537.622803,475.402557 537.622803,449.493744 537.622803,423.240845 
	C543.279419,423.240845 549.022095,423.240845 555.345825,423.240845 
	C555.345825,426.407715 555.345825,429.747253 555.345825,433.086823 
	C562.775391,425.161255 571.195618,420.644562 581.887817,420.781647 
	C592.767944,420.921204 601.208740,425.059998 606.086487,435.219727 
	C608.547363,432.644287 610.894592,430.187744 613.508057,427.493011 
z"/>
<path fill="#F6F8F8" opacity="1.000000" stroke="none" 
	d="
M816.757202,534.740234 
	C799.367432,537.998047 783.344849,536.081360 768.479431,525.796143 
	C771.014832,521.213074 773.397461,516.906128 775.993225,512.213928 
	C777.557007,512.987915 779.012451,513.626099 780.389404,514.403381 
	C788.942200,519.231201 798.132812,520.879883 807.841064,519.970398 
	C816.988220,519.113525 823.369019,513.675232 824.970642,504.530609 
	C825.900269,499.222839 825.813843,493.737122 825.773315,488.131775 
	C821.007812,494.107513 815.481689,498.732208 808.225525,500.841736 
	C789.687927,506.230865 771.326721,495.494263 765.846375,475.210693 
	C761.503113,459.135803 763.346497,443.763916 775.023865,430.775269 
	C787.089966,417.354187 812.487000,416.902069 823.615540,432.154907 
	C824.010010,432.695618 824.329041,433.291443 825.786011,433.502380 
	C825.972778,430.184631 826.159546,426.866882 826.363953,423.235962 
	C832.233154,423.235962 837.815308,423.235962 843.709717,423.235962 
	C843.826843,424.151947 844.052063,425.092285 844.052002,426.032623 
	C844.049866,450.363556 844.121094,474.695099 843.971375,499.025238 
	C843.856750,517.648743 834.923096,529.316040 816.757202,534.740234 
M786.091003,474.192596 
	C791.069458,482.509613 798.923767,486.287872 808.330017,484.890442 
	C816.897461,483.617615 823.718384,477.652618 825.024902,468.170380 
	C825.853149,462.159241 825.383789,455.492767 823.594238,449.708801 
	C820.884338,440.950684 813.344177,437.398407 804.516907,437.221558 
	C795.933289,437.049591 789.442932,440.902130 785.897644,448.888275 
	C782.288574,457.018066 782.060852,465.273773 786.091003,474.192596 
z"/>
<path fill="#4373A5" opacity="1.000000" stroke="none" 
	d="
M1287.827148,395.976898 
	C1301.956909,431.166412 1315.938477,465.988495 1330.304199,501.766998 
	C1323.404907,501.766998 1317.638794,501.937775 1311.900146,501.616669 
	C1310.809204,501.555634 1309.425537,499.719025 1308.865845,498.407623 
	C1306.647461,493.209137 1304.582031,487.936340 1302.706055,482.604492 
	C1301.741333,479.862579 1300.288086,478.651398 1297.267090,478.677063 
	C1283.450439,478.794525 1269.629517,478.595306 1255.817261,478.869354 
	C1254.047729,478.904480 1251.481689,480.654633 1250.728149,482.279694 
	C1248.356812,487.393402 1246.596802,492.799805 1244.755371,498.146271 
	C1243.796509,500.930359 1242.139160,501.993622 1239.166016,501.861725 
	C1234.242065,501.643250 1229.301270,501.802307 1223.311523,501.802307 
	C1226.110718,494.393036 1228.477661,487.913239 1230.997925,481.493683 
	C1241.509277,454.719452 1252.116699,427.982819 1262.577271,401.188843 
	C1265.764771,393.024323 1265.600952,392.959076 1274.531372,392.946991 
	C1277.527954,392.942932 1280.563477,392.663239 1283.504639,393.067200 
	C1284.984497,393.270477 1286.293091,394.722260 1287.827148,395.976898 
M1285.423828,461.891449 
	C1288.286621,461.891449 1291.149414,461.891449 1295.152466,461.891449 
	C1288.630737,444.966766 1282.673828,429.507935 1276.345581,413.085419 
	C1270.044434,429.718018 1264.088257,445.440094 1257.856323,461.889954 
	C1267.482056,461.889954 1275.962280,461.889954 1285.423828,461.891449 
z"/>
<path fill="#4374A5" opacity="1.000000" stroke="none" 
	d="
M1038.829834,454.148499 
	C1038.831055,465.289001 1038.725586,475.951752 1038.896973,486.610046 
	C1038.948853,489.833740 1037.901978,491.820282 1035.091431,493.433624 
	C1014.892334,505.027924 994.069031,508.163422 972.768555,497.068970 
	C957.077209,488.896118 948.446228,475.128052 945.730469,457.878845 
	C942.508850,437.417572 947.188477,419.150238 962.542114,404.462219 
	C981.891846,385.951263 1020.338806,385.910889 1037.820435,404.742615 
	C1034.866333,409.074432 1031.829224,413.528168 1029.287964,417.254700 
	C1021.608398,414.232544 1014.799072,410.457428 1007.514893,408.891479 
	C985.567871,404.173370 965.953369,419.278290 963.957153,441.681671 
	C962.713318,455.641602 965.635376,468.270172 976.417175,478.037445 
	C987.612854,488.179749 1004.984619,489.569580 1018.448914,482.664001 
	C1019.851746,481.944489 1020.884338,479.215729 1020.942444,477.382812 
	C1021.206360,469.062164 1021.207092,460.724640 1020.990662,452.401306 
	C1020.898376,448.853027 1022.132690,447.681610 1025.593994,447.884552 
	C1029.719727,448.126465 1033.870361,447.941528 1038.538574,447.941528 
	C1038.649902,450.135651 1038.739624,451.902344 1038.829834,454.148499 
z"/>
<path fill="#F4F6F6" opacity="1.000000" stroke="none" 
	d="
M727.652649,456.137817 
	C728.991150,455.628632 730.517761,455.141479 730.628967,454.432343 
	C731.828369,446.785278 727.582581,440.266724 720.095825,437.908081 
	C710.744080,434.961884 699.932800,437.083984 689.227783,444.043518 
	C686.574463,440.096619 683.919617,436.147400 681.286438,432.230499 
	C693.930603,420.007904 720.878357,416.888641 735.571411,425.978058 
	C742.756409,430.422791 747.567017,436.943573 747.957397,445.427124 
	C748.630127,460.045380 748.495178,474.701233 748.674316,489.341583 
	C748.722595,493.289001 748.681641,497.237518 748.681641,501.451660 
	C742.559387,501.451660 736.965820,501.451660 730.968933,501.451660 
	C730.805664,498.466248 730.648560,495.593689 730.456543,492.082245 
	C720.098816,503.315979 707.705078,505.563812 694.169983,501.906128 
	C682.563599,498.769623 676.072083,489.830505 676.432556,478.934845 
	C676.826782,467.018250 683.505981,458.941162 695.503723,455.911682 
	C706.073059,453.242920 716.632874,453.972198 727.652649,456.137817 
M699.798523,470.134460 
	C698.494202,472.343567 696.459595,474.418915 696.025940,476.787445 
	C694.839111,483.268463 698.199097,487.461304 705.204041,489.246185 
	C720.454651,493.132141 733.482666,482.063019 729.822876,467.652039 
	C725.834106,467.652039 721.679565,467.393646 717.570251,467.714447 
	C711.857422,468.160400 706.178467,469.040466 699.798523,470.134460 
z"/>
<path fill="#5598D0" opacity="1.000000" stroke="none" 
	d="
M330.993347,317.977142 
	C337.772919,315.022095 343.187012,318.292694 348.462097,321.904938 
	C353.652161,325.458984 358.551331,329.475952 363.921509,332.721741 
	C381.019104,343.055817 398.298859,353.088104 415.450500,363.333649 
	C418.318665,365.046936 420.728973,365.756165 424.211700,364.389465 
	C432.467621,361.149597 441.560883,365.608856 444.633514,373.781403 
	C447.880707,382.418213 444.378113,390.879089 435.431549,393.921326 
	C431.309753,395.322906 430.740662,397.424469 430.758575,401.089569 
	C430.880859,426.081726 430.840393,451.074615 430.851746,476.067291 
	C430.855743,484.821655 430.854828,484.821655 440.080414,488.468353 
	C440.224884,486.568604 440.465851,484.877899 440.464966,483.187347 
	C440.454376,463.360168 440.419678,443.532990 440.356812,423.705872 
	C440.347534,420.779205 440.084167,417.552277 444.190704,417.527924 
	C448.094727,417.504761 447.800537,420.667694 447.784607,423.360016 
	C447.665314,443.519165 447.486053,463.678162 447.450867,483.837402 
	C447.443604,488.006500 446.692322,490.995087 440.931763,489.599457 
	C442.190369,491.784485 443.078491,493.306854 443.948456,494.839539 
	C450.179199,505.816681 442.718903,519.938049 430.730927,521.014709 
	C428.014008,521.258667 425.070618,520.607178 422.590881,521.439148 
	C419.716949,522.403381 414.883698,524.689209 414.970917,526.159851 
	C415.554535,535.996765 409.232880,539.336975 401.452881,541.755005 
	C402.722260,540.132996 404.463776,538.967834 405.905334,537.506653 
	C407.690491,535.697144 409.673096,533.861938 410.766266,531.641907 
	C412.402924,528.318054 412.947754,524.440918 414.681061,521.184509 
	C416.483215,517.798828 415.810699,516.105164 412.506470,514.580994 
	C411.251770,514.002258 409.453491,512.250854 409.617767,511.344849 
	C410.424072,506.898346 408.002472,504.591309 404.772583,502.570557 
	C408.323303,496.960297 411.806152,491.305664 415.443146,485.751953 
	C419.275909,479.899384 419.906647,473.459106 419.611084,466.692871 
	C419.486603,463.843262 418.591003,462.331604 415.683594,462.105347 
	C407.929169,461.501862 400.181335,460.355560 392.426666,460.318909 
	C380.533051,460.262665 370.948181,451.455780 371.107086,439.906525 
	C371.262665,428.600800 381.396088,419.971588 393.340240,420.571869 
	C395.981750,420.704651 398.945404,419.944122 401.322174,418.733734 
	C407.101166,415.790833 412.622528,412.342010 418.609314,409.397247 
	C416.978119,412.016144 415.140839,416.091644 412.959747,416.284760 
	C408.525543,416.677490 407.086182,418.169464 407.597382,421.711639 
	C401.665741,422.328369 395.991425,422.918365 389.883728,423.553406 
	C392.387024,428.478973 392.386993,428.478943 390.343628,433.676697 
	C389.005890,437.079498 390.484253,439.940552 394.016693,440.982574 
	C395.222839,441.338409 396.503082,441.757599 397.481201,442.500885 
	C399.108856,443.737762 400.519989,445.259552 402.658539,447.255035 
	C402.132050,448.187744 401.095306,450.024475 399.984467,451.992493 
	C401.276215,452.731903 402.529419,453.079254 403.213287,453.900635 
	C407.716614,459.309448 413.276367,461.156006 420.150452,459.614014 
	C420.894379,459.447144 422.329956,460.679108 422.872284,461.599457 
	C424.865295,464.981720 426.617004,468.506226 429.198853,473.369934 
	C428.729767,467.580627 428.015472,463.077911 428.062805,458.583221 
	C428.244232,441.367889 429.353271,424.129333 428.702759,406.952911 
	C428.399933,398.956909 428.345581,392.817596 437.183594,390.161896 
	C438.063416,389.897522 438.718842,388.917450 439.504211,388.302460 
	C444.915436,384.065094 445.020416,377.364899 439.759308,372.828949 
	C439.140472,372.295410 438.368530,371.737152 438.103363,371.027527 
	C435.912842,365.165405 431.481720,365.328583 426.597107,366.619904 
	C419.911835,368.387329 413.976135,366.604828 408.413818,362.872192 
	C401.742828,358.395569 395.041992,353.963318 388.339020,349.534607 
	C387.941284,349.271851 387.402008,349.231903 386.942352,349.053009 
	C382.628143,347.373871 378.316956,345.687042 373.879883,343.795197 
	C373.550385,343.329498 373.298035,343.132355 372.995789,342.749908 
	C372.993835,342.503296 372.993469,342.010101 373.135651,341.910583 
	C373.329529,341.708954 373.451660,341.563049 373.420258,341.512512 
	C373.305084,341.327087 373.138855,341.173370 372.995911,341.003876 
	C373.000000,341.000000 372.992889,341.007843 372.838074,340.803406 
	C372.122589,340.734314 371.561920,340.869659 370.878235,341.211731 
	C370.552704,341.676849 370.300537,341.870636 369.762726,341.779297 
	C369.327850,340.186920 369.129028,338.815125 369.071014,338.414734 
	C364.944519,336.064484 361.522217,334.258545 358.248749,332.214325 
	C354.236481,329.708740 349.728699,327.581390 346.591370,324.213440 
	C343.771484,321.186218 340.867828,319.568817 336.837372,318.766418 
	C335.737366,318.688049 334.840240,318.844513 333.584015,318.996826 
	C332.506592,318.988098 331.788330,318.983490 331.050873,318.728455 
	C331.018951,318.311096 331.006165,318.144135 330.993347,317.977142 
z"/>
<path fill="#F4F7F8" opacity="1.000000" stroke="none" 
	d="
M897.176575,503.483826 
	C875.612061,501.858093 863.458618,491.253479 859.545349,471.000580 
	C855.814270,451.690338 864.645630,432.191467 880.648804,424.406097 
	C904.435303,412.834198 930.199585,426.840393 933.916809,453.477386 
	C934.556458,458.061218 934.507141,462.741150 934.811340,467.984955 
	C915.644653,467.984955 896.935120,467.984955 877.839172,467.984955 
	C877.853027,475.464386 880.803406,480.876373 886.556091,484.216309 
	C898.986084,491.433014 910.801575,488.888031 922.274597,480.545868 
	C925.049133,484.203400 927.720642,487.725067 930.827759,491.821075 
	C921.509766,500.955780 910.032410,503.477173 897.176575,503.483826 
M914.842712,445.934265 
	C911.032837,436.842346 900.485596,433.821747 892.145813,435.958099 
	C883.840149,438.085663 878.170532,445.659363 877.987915,455.068726 
	C890.891907,455.068726 903.790588,455.068726 917.403870,455.068726 
	C916.557190,451.981171 915.827942,449.321930 914.842712,445.934265 
z"/>
<path fill="#4373A5" opacity="1.000000" stroke="none" 
	d="
M1117.945801,468.091919 
	C1101.882202,468.091675 1086.311646,468.091675 1070.706299,468.091675 
	C1071.713623,488.293091 1093.234863,493.745880 1115.446289,480.151031 
	C1118.080566,483.600739 1120.757812,487.106659 1124.075562,491.451385 
	C1121.078613,493.644226 1118.278931,496.114349 1115.108398,497.941071 
	C1099.706299,506.814819 1074.229370,506.740234 1061.205322,490.309082 
	C1049.816162,475.940704 1049.258545,459.716003 1055.559204,443.125549 
	C1065.102905,417.995392 1098.290161,414.656342 1114.432861,429.526917 
	C1125.586182,439.801331 1127.390869,453.190247 1126.739624,468.092194 
	C1123.658569,468.092194 1121.048706,468.092194 1117.945801,468.091919 
M1080.949707,437.159363 
	C1073.960693,440.850342 1071.347656,447.117035 1070.164795,454.747437 
	C1083.379761,454.747437 1096.041626,454.747437 1109.234253,454.747437 
	C1108.850830,452.292389 1108.793335,450.291595 1108.210205,448.458069 
	C1104.617065,437.163483 1094.167236,432.648682 1080.949707,437.159363 
z"/>
<path fill="#4374A5" opacity="1.000000" stroke="none" 
	d="
M1192.450806,421.141724 
	C1206.740967,424.965698 1213.711426,433.479401 1213.929443,447.820038 
	C1214.180176,464.313751 1213.904053,480.814911 1214.052368,497.311096 
	C1214.083862,500.800537 1212.970703,501.859772 1209.489502,501.895721 
	C1196.046265,502.034485 1196.046387,502.148346 1196.047729,488.759735 
	C1196.048828,478.094635 1196.087402,467.429413 1196.046875,456.764465 
	C1195.999390,444.257019 1190.567261,437.908691 1179.875122,437.751953 
	C1168.074707,437.578949 1160.280273,444.812744 1160.026001,456.766785 
	C1159.746094,469.925903 1159.758057,483.097260 1159.980957,496.257568 
	C1160.054321,500.585266 1158.884521,502.291138 1154.373291,501.853180 
	C1150.308228,501.458527 1146.174438,501.769958 1141.818970,501.769958 
	C1141.818970,493.174408 1141.819214,485.384399 1141.818848,477.594391 
	C1141.818237,461.263428 1141.979126,444.929810 1141.713989,428.603119 
	C1141.637817,423.917511 1143.156372,422.418610 1147.683838,422.843384 
	C1151.431763,423.195038 1155.238770,422.915314 1159.378662,422.915314 
	C1159.554321,426.371735 1159.695435,429.150299 1159.869873,432.581787 
	C1161.161621,431.426300 1162.094604,430.658539 1162.952393,429.814270 
	C1171.106812,421.787872 1181.054565,419.762024 1192.450806,421.141724 
z"/>
<path fill="#406FA0" opacity="1.000000" stroke="none" 
	d="
M297.984497,459.925934 
	C295.148529,460.159302 292.311646,460.382416 289.476837,460.629272 
	C287.309113,460.818054 285.143951,461.036743 282.472229,460.863464 
	C281.211945,459.500977 280.457092,458.517120 279.682983,457.226227 
	C275.858368,450.934418 271.114258,445.152374 272.953400,437.379517 
	C273.947998,433.176056 275.808289,429.177460 277.407990,424.724670 
	C274.152740,424.032867 271.207977,419.362732 266.864868,424.078979 
	C264.186432,425.919830 262.296631,427.740967 266.049469,430.401733 
	C265.913147,431.864594 265.765991,432.924927 265.368896,434.056396 
	C265.132874,434.772644 265.146759,435.417694 265.172485,436.388062 
	C265.122131,437.142242 265.059906,437.571106 264.663574,438.073242 
	C263.326294,439.353302 262.323120,440.560120 261.122406,442.004578 
	C260.171600,441.213409 259.038086,440.743774 258.776306,439.976685 
	C256.866638,434.381104 253.572922,428.805603 257.254364,422.771667 
	C259.665405,418.819885 257.446655,416.234863 255.056885,413.492188 
	C253.892395,412.155731 253.013718,410.570190 252.355392,409.608398 
	C255.068329,407.844452 256.996887,406.590485 258.925446,405.336548 
	C264.629211,396.971069 266.877014,387.905640 266.133453,377.664246 
	C265.413208,367.744324 266.043762,357.729736 265.972717,347.757477 
	C265.946075,344.016815 266.564087,340.976440 271.227753,341.110657 
	C275.395691,341.230621 277.068756,343.483063 276.835388,347.595490 
	C276.638977,351.056946 276.794983,354.538361 276.794983,359.298828 
	C282.856415,355.641815 288.109406,352.472534 293.750122,349.556641 
	C295.891815,351.334076 297.645844,352.858093 299.399872,354.382111 
	C293.772278,357.798248 288.104431,361.150177 282.527832,364.647583 
	C276.324097,368.538269 275.620453,370.561737 277.495697,378.764038 
	C282.207642,375.548859 286.776001,372.431671 291.617340,369.622131 
	C287.683777,374.519958 283.573944,379.203949 279.239990,383.670532 
	C275.782990,387.233276 276.046478,390.956360 280.820587,393.938904 
	C281.880737,391.958954 282.940979,389.978851 284.000610,387.999390 
	C284.000000,388.000000 283.998779,388.001221 284.340179,388.047668 
	C285.501221,388.836243 286.320831,389.578400 287.140472,390.320526 
	C283.755280,394.742218 280.244995,399.074799 277.016846,403.608307 
	C273.061493,409.163177 273.225281,409.283447 279.243011,411.923767 
	C283.477692,413.781738 287.616821,415.857544 291.910980,418.468445 
	C290.569214,419.741943 289.115082,420.383026 287.153931,421.247650 
	C287.292969,422.072693 287.397186,423.333862 287.726685,424.533081 
	C289.006866,429.192749 290.085388,433.934631 291.768463,438.448456 
	C293.167999,442.201843 295.813202,445.525116 296.970703,449.324097 
	C297.984711,452.652039 297.697113,456.376587 297.984497,459.925934 
z"/>
<path fill="#589FDA" opacity="1.000000" stroke="none" 
	d="
M369.998779,341.999847 
	C370.300537,341.870636 370.552704,341.676849 371.210205,341.212158 
	C372.107727,341.006561 372.550323,341.007202 372.992889,341.007843 
	C372.992889,341.007843 373.000000,341.000000 372.995300,341.254425 
	C372.991547,341.675903 372.992523,341.842987 372.993469,342.010101 
	C372.993469,342.010101 372.993835,342.503296 372.804443,342.912506 
	C372.665253,343.743317 372.715454,344.164886 372.765625,344.586487 
	C373.178711,344.391815 373.591797,344.197144 374.004883,344.002441 
	C378.316956,345.687042 382.628143,347.373871 386.942352,349.053009 
	C387.402008,349.231903 387.941284,349.271851 388.339020,349.534607 
	C395.041992,353.963318 401.742828,358.395569 408.413818,362.872192 
	C413.976135,366.604828 419.911835,368.387329 426.597107,366.619904 
	C431.481720,365.328583 435.912842,365.165405 438.103363,371.027527 
	C438.368530,371.737152 439.140472,372.295410 439.759308,372.828949 
	C445.020416,377.364899 444.915436,384.065094 439.504211,388.302460 
	C438.718842,388.917450 438.063416,389.897522 437.183594,390.161896 
	C428.345581,392.817596 428.399933,398.956909 428.702759,406.952911 
	C429.353271,424.129333 428.244232,441.367889 428.062805,458.583221 
	C428.015472,463.077911 428.729767,467.580627 429.198853,473.369934 
	C426.617004,468.506226 424.865295,464.981720 422.872284,461.599457 
	C422.329956,460.679108 420.894379,459.447144 420.150452,459.614014 
	C413.276367,461.156006 407.716614,459.309448 403.213287,453.900635 
	C402.529419,453.079254 401.276215,452.731903 399.984467,451.992493 
	C401.095306,450.024475 402.132050,448.187744 402.658539,447.255035 
	C400.519989,445.259552 399.108856,443.737762 397.481201,442.500885 
	C396.503082,441.757599 395.222839,441.338409 394.016693,440.982574 
	C390.484253,439.940552 389.005890,437.079498 390.343628,433.676697 
	C392.386993,428.478943 392.387024,428.478973 389.883728,423.553406 
	C395.991425,422.918365 401.665741,422.328369 407.597382,421.711639 
	C407.086182,418.169464 408.525543,416.677490 412.959747,416.284760 
	C415.140839,416.091644 416.978119,412.016144 418.949158,409.308472 
	C418.927307,408.919434 418.951996,408.961151 419.300842,408.893188 
	C420.135071,408.417206 421.018250,408.033447 421.044830,407.597443 
	C421.344757,402.680664 421.629272,397.754608 421.574402,392.834839 
	C421.567291,392.197876 419.624084,391.582520 418.577698,390.957153 
	C418.043457,389.722168 417.509216,388.487152 416.835236,386.598114 
	C416.370300,385.661224 416.045074,385.378357 415.719879,385.095520 
	C415.200043,384.653046 414.680206,384.210571 413.979828,383.493896 
	C413.799255,383.219666 413.818115,383.195435 413.818115,383.195435 
	C413.634705,383.067841 413.451294,382.940277 413.064941,382.190002 
	C411.988770,381.017365 411.115479,380.467377 410.242218,379.917389 
	C406.900543,377.546143 403.558868,375.174866 400.075134,372.121857 
	C398.602509,370.635895 397.271942,369.831635 395.941376,369.027405 
	C395.336853,368.653320 394.732330,368.279236 394.015320,367.290771 
	C392.451111,364.808228 391.220703,362.696259 389.495148,361.129669 
	C386.972076,358.839020 384.094177,356.939117 381.366760,354.873657 
	C378.956635,353.048523 376.209717,351.524841 374.232819,349.312805 
	C372.394928,347.256348 371.377441,344.466705 369.998779,341.999847 
M420.046326,449.405975 
	C421.695740,451.588196 422.798096,451.036774 422.850128,448.592255 
	C423.006500,441.248505 422.991608,433.900452 422.978577,426.554199 
	C422.974945,424.504333 422.746033,422.454834 422.616333,420.337677 
	C415.125488,421.731659 411.135284,424.517944 409.826294,429.100769 
	C409.826294,429.100769 409.523438,429.187744 408.735626,429.160004 
	C407.888885,429.968719 406.200623,430.958405 406.329437,431.557343 
	C407.300354,436.072266 408.628571,440.510315 409.904633,445.627167 
	C410.271027,446.380371 410.637390,447.133545 411.159882,448.607239 
	C412.808868,448.649261 414.457855,448.691254 416.865173,448.742401 
	C417.869476,448.727753 418.873779,448.713074 420.046326,449.405975 
z"/>
<path fill="#487DB1" opacity="1.000000" stroke="none" 
	d="
M373.360657,516.302429 
	C365.646149,521.820312 356.790314,524.427429 347.612885,525.848694 
	C342.424957,526.652100 337.094971,526.538452 331.424622,526.380005 
	C330.580505,521.774841 331.391357,517.105225 326.012268,515.131104 
	C325.385071,514.900940 325.325470,513.124207 325.002716,512.064453 
	C325.454712,512.041626 325.906708,512.018799 326.894318,512.259766 
	C328.277069,512.393555 329.124176,512.263550 329.971313,512.133606 
	C334.253876,512.572510 335.900085,510.651062 335.663513,506.380188 
	C335.461700,502.737091 335.902435,499.062561 335.892029,495.402405 
	C335.888428,494.139374 335.815735,492.369324 335.032318,491.700958 
	C331.033539,488.289581 331.352966,483.836945 331.360657,479.295532 
	C331.406342,452.306580 331.356873,425.317444 331.368408,398.328369 
	C331.371155,391.898438 334.598541,388.756531 340.023956,389.780670 
	C344.646240,390.653229 346.060913,393.643982 346.040558,398.097229 
	C345.926239,423.086700 345.957123,448.076843 345.945099,473.066772 
	C345.943359,476.731781 346.072327,480.399963 345.950958,484.060394 
	C345.897186,485.682190 345.906311,487.758331 344.970917,488.825073 
	C339.017303,495.614716 343.104187,503.355652 341.695251,511.098816 
	C352.307587,510.331421 360.877716,506.464691 369.603943,502.290894 
	C368.449280,506.144012 366.928864,509.660187 365.387299,513.225281 
	C368.235962,514.324646 370.798309,515.313538 373.360657,516.302429 
z"/>
<path fill="#3C6899" opacity="1.000000" stroke="none" 
	d="
M300.714478,557.969299 
	C300.778198,559.128845 301.329895,560.629089 300.806488,561.378601 
	C299.630096,563.062988 297.780945,565.669434 296.461212,565.527283 
	C294.599487,565.326843 291.722107,563.165710 291.476044,561.515320 
	C290.771149,556.787231 291.536957,551.851562 290.980072,547.084473 
	C290.718414,544.844482 289.284668,541.885437 287.465088,540.823608 
	C276.547455,534.452393 265.432678,528.403931 254.206146,522.590698 
	C252.111908,521.506226 248.920685,521.131226 246.731384,521.879272 
	C236.384766,525.414795 227.228531,518.612122 224.563095,512.226624 
	C220.601151,502.735016 224.518799,491.997284 233.029144,488.394043 
	C237.046265,486.693176 238.195709,483.698761 238.009872,479.615417 
	C237.813263,475.295135 237.613724,470.912689 238.150177,466.649872 
	C238.387848,464.761169 240.432861,463.099915 241.657471,461.335449 
	C242.770142,462.708893 244.431137,463.914185 244.911804,465.481506 
	C250.585831,483.982025 257.705719,501.698303 272.945007,514.628418 
	C278.487274,519.330872 284.816528,523.105713 290.692261,527.757324 
	C290.513153,529.733643 290.136749,531.319397 290.447144,532.756897 
	C290.651520,533.703491 292.194214,534.312805 292.538910,535.285400 
	C294.692993,541.362976 296.759247,547.386108 294.212769,554.041260 
	C293.521973,555.846619 294.712921,558.371948 295.040192,560.566833 
	C296.603363,559.738953 298.158783,558.895691 299.737061,558.097595 
	C300.013733,557.957642 300.386230,558.007263 300.714478,557.969299 
z"/>
<path fill="#4373A5" opacity="1.000000" stroke="none" 
	d="
M1342.126343,441.000000 
	C1342.126465,424.884003 1342.126465,409.268036 1342.126465,392.995789 
	C1347.703003,392.995789 1352.641235,393.021606 1357.578979,392.986877 
	C1360.971802,392.963013 1360.585571,395.443359 1360.596558,397.547424 
	C1360.649292,407.710052 1360.649902,417.873047 1360.653442,428.035889 
	C1360.661377,450.694153 1360.546143,473.353485 1360.757690,496.009796 
	C1360.800537,500.605682 1359.411621,501.981995 1354.830811,501.922546 
	C1342.137817,501.757812 1342.135986,501.952667 1342.134399,489.482330 
	C1342.132324,473.488220 1342.128906,457.494110 1342.126343,441.000000 
z"/>
<path fill="#4577A8" opacity="1.000000" stroke="none" 
	d="
M324.744324,511.875488 
	C325.325470,513.124207 325.385071,514.900940 326.012268,515.131104 
	C331.391357,517.105225 330.580505,521.774841 331.024353,526.297974 
	C324.953400,525.790955 318.878387,524.908264 312.351135,523.583679 
	C308.719666,520.472656 306.783966,515.957703 301.614655,516.220459 
	C301.553406,515.105835 301.347626,513.972534 301.463837,512.873352 
	C301.644806,511.161133 302.044495,509.472015 302.351501,507.773132 
	C303.820374,508.097839 305.316864,508.332397 306.750183,508.772705 
	C308.167511,509.208191 309.485229,509.981201 310.910675,510.373566 
	C313.099854,510.976166 314.174469,510.391083 312.957703,507.972748 
	C312.957703,488.931305 312.957703,469.889862 312.957703,451.109314 
	C308.064117,454.127319 303.390015,457.009949 298.350220,459.909271 
	C297.697113,456.376587 297.984711,452.652039 296.970703,449.324097 
	C295.813202,445.525116 293.167999,442.201843 291.768463,438.448456 
	C290.085388,433.934631 289.006866,429.192749 287.726685,424.533081 
	C287.397186,423.333862 287.292969,422.072693 287.153931,421.247650 
	C289.115082,420.383026 290.569214,419.741943 292.096222,418.727722 
	C300.232239,420.102905 307.630188,422.979004 312.642090,430.583801 
	C311.805542,421.851562 315.886719,413.195129 310.736359,404.896301 
	C308.903229,401.942535 309.266388,397.919312 312.675476,396.141815 
	C314.725861,395.072784 318.360138,394.962952 320.250214,396.115326 
	C323.751984,398.250336 323.761841,402.066925 322.338257,405.898682 
	C321.345123,408.571930 320.220184,411.418976 320.199280,414.196259 
	C319.976776,443.789246 319.962921,473.383820 319.893066,502.977936 
	C319.887604,505.294952 319.892365,507.611969 319.892365,509.912262 
	C321.635681,510.585632 323.060791,511.136078 324.744324,511.875488 
M320.866241,523.306396 
	C320.947662,523.306274 321.029083,523.306152 320.866241,523.306396 
z"/>
<path fill="#F6F8F8" opacity="1.000000" stroke="none" 
	d="
M499.086670,496.761322 
	C499.079407,471.999512 499.079407,447.712891 499.079407,423.141479 
	C505.189758,423.141479 510.953705,423.141479 517.057983,423.141479 
	C517.057983,449.267792 517.057983,475.309204 517.057983,501.539825 
	C511.183685,501.539825 505.569855,501.539825 499.461029,501.539825 
	C499.335754,500.071350 499.214844,498.653931 499.086670,496.761322 
z"/>
<path fill="#3C6899" opacity="1.000000" stroke="none" 
	d="
M279.702209,457.533264 
	C280.457092,458.517120 281.211945,459.500977 282.079773,460.848145 
	C282.192749,461.211456 282.069580,461.166321 281.827545,461.279114 
	C281.414734,461.755127 281.243958,462.118286 281.073151,462.481445 
	C273.486267,467.067566 265.899384,471.653687 257.956665,476.454926 
	C250.133636,458.132782 249.097290,440.335968 253.363190,422.240814 
	C254.381470,417.921448 253.467651,416.460480 249.342072,415.260559 
	C237.042465,411.683197 237.102066,411.503479 237.108200,398.735168 
	C237.113724,387.250275 237.076447,375.765289 237.106995,364.280487 
	C237.120789,359.098175 238.859268,357.073883 243.152802,357.001617 
	C247.415741,356.929901 249.061386,358.885406 249.074417,364.213867 
	C249.100464,374.866455 249.079971,385.519196 249.080109,396.171875 
	C249.080215,404.509888 249.402496,404.836334 258.505707,405.328735 
	C256.996887,406.590485 255.068329,407.844452 252.355392,409.608398 
	C253.013718,410.570190 253.892395,412.155731 255.056885,413.492188 
	C257.446655,416.234863 259.665405,418.819885 257.254364,422.771667 
	C253.572922,428.805603 256.866638,434.381104 258.776306,439.976685 
	C259.038086,440.743774 260.171600,441.213409 261.122406,442.004578 
	C262.323120,440.560120 263.326294,439.353302 264.716919,438.532593 
	C265.173615,447.077301 265.256775,455.233429 269.105194,463.576508 
	C272.941650,461.388641 276.321930,459.460938 279.702209,457.533264 
M249.725266,407.480347 
	C249.895981,407.470917 250.066711,407.461487 250.237427,407.452087 
	C250.123459,407.400238 250.009491,407.348389 249.725266,407.480347 
z"/>
<path fill="#4373A5" opacity="1.000000" stroke="none" 
	d="
M300.786530,557.546631 
	C300.386230,558.007263 300.013733,557.957642 299.737061,558.097595 
	C298.158783,558.895691 296.603363,559.738953 295.040192,560.566833 
	C294.712921,558.371948 293.521973,555.846619 294.212769,554.041260 
	C296.759247,547.386108 294.692993,541.362976 292.538910,535.285400 
	C292.194214,534.312805 290.651520,533.703491 290.447144,532.756897 
	C290.136749,531.319397 290.513153,529.733643 290.908813,528.021606 
	C292.369446,528.315735 293.519073,528.799072 294.868958,529.876343 
	C295.639313,531.503601 296.209442,532.536865 296.779541,533.570068 
	C297.583618,532.896912 298.387695,532.223816 299.191803,531.550720 
	C305.776855,533.143860 312.339478,534.838623 318.953918,536.298462 
	C324.421997,537.505310 333.841461,534.122681 337.880737,529.606995 
	C339.944214,531.427124 342.015564,533.254150 343.938232,535.546997 
	C342.244385,535.868958 340.634369,535.381287 339.168518,535.657898 
	C336.673126,536.128662 333.694275,536.439758 331.967743,537.987976 
	C329.699036,540.022339 331.514038,542.030396 333.710052,543.544922 
	C334.697723,544.226074 335.527924,545.528137 335.854645,546.707764 
	C337.325470,552.017944 339.258759,557.324219 339.753021,562.747864 
	C340.319366,568.962097 343.992920,570.415283 348.998474,570.997803 
	C349.000000,571.000000 349.004120,571.002930 349.004974,571.353027 
	C349.017029,572.169861 349.028229,572.636719 349.039459,573.103516 
	C342.726074,578.625732 335.531647,579.321350 328.235779,575.921631 
	C321.011108,572.555115 317.308105,566.568054 317.807709,558.329773 
	C317.907654,556.681213 318.198303,554.852112 317.624023,553.417175 
	C317.184692,552.319275 315.467072,550.947266 314.409882,551.020691 
	C310.202087,551.312683 306.030273,552.123291 301.223969,552.833801 
	C301.129425,553.944092 300.993988,555.534058 300.786530,557.546631 
z"/>
<path fill="#5190C7" opacity="1.000000" stroke="none" 
	d="
M369.762726,341.779297 
	C371.377441,344.466705 372.394928,347.256348 374.232819,349.312805 
	C376.209717,351.524841 378.956635,353.048523 381.366760,354.873657 
	C384.094177,356.939117 386.972076,358.839020 389.495148,361.129669 
	C391.220703,362.696259 392.451111,364.808228 393.843811,367.080780 
	C382.353729,360.170929 370.664215,353.466705 357.483795,349.605865 
	C351.741211,347.923706 346.602234,347.379639 341.374146,351.904297 
	C337.976593,350.464264 336.868500,352.284515 335.941193,354.455719 
	C335.414825,354.457672 334.888428,354.459595 334.165039,353.905548 
	C331.366394,349.901764 328.764771,346.453979 325.967896,342.747437 
	C326.116455,341.180389 327.483795,337.921387 326.400909,336.247986 
	C321.703033,328.988525 321.408356,329.126892 326.995392,322.611786 
	C328.169342,321.242828 329.702423,320.181824 331.070007,318.978882 
	C331.788330,318.983490 332.506592,318.988098 333.971863,318.997437 
	C335.492645,319.001862 336.266479,319.001556 337.040283,319.001221 
	C340.867828,319.568817 343.771484,321.186218 346.591370,324.213440 
	C349.728699,327.581390 354.236481,329.708740 358.248749,332.214325 
	C361.522217,334.258545 364.944519,336.064484 369.071014,338.414734 
	C369.129028,338.815125 369.327850,340.186920 369.762726,341.779297 
z"/>
<path fill="#487DB1" opacity="1.000000" stroke="none" 
	d="
M348.996979,570.995667 
	C343.992920,570.415283 340.319366,568.962097 339.753021,562.747864 
	C339.258759,557.324219 337.325470,552.017944 335.854645,546.707764 
	C335.527924,545.528137 334.697723,544.226074 333.710052,543.544922 
	C331.514038,542.030396 329.699036,540.022339 331.967743,537.987976 
	C333.694275,536.439758 336.673126,536.128662 339.168518,535.657898 
	C340.634369,535.381287 342.244385,535.868958 344.119934,535.826355 
	C350.395355,534.242310 356.340454,532.844788 362.621246,531.809937 
	C361.076050,533.439514 359.195129,534.706421 357.314209,535.973328 
	C357.811646,536.095398 358.309082,536.217468 358.806519,536.339600 
	C358.668488,538.731934 358.284424,541.145020 358.483856,543.508911 
	C358.605255,544.948303 359.235596,546.942627 360.307098,547.606018 
	C366.769867,551.607300 366.795074,557.309631 365.076263,563.626404 
	C359.964264,566.738281 354.852264,569.850159 349.389862,573.032776 
	C349.028229,572.636719 349.017029,572.169861 349.112427,571.302612 
	C349.218994,570.902222 349.232544,570.611816 349.232544,570.611816 
	C349.232544,570.611816 348.996979,570.995667 348.996979,570.995667 
z"/>
<path fill="#4A84BA" opacity="1.000000" stroke="none" 
	d="
M365.455627,563.571167 
	C366.795074,557.309631 366.769867,551.607300 360.307098,547.606018 
	C359.235596,546.942627 358.605255,544.948303 358.483856,543.508911 
	C358.284424,541.145020 358.668488,538.731934 358.806519,536.339600 
	C358.309082,536.217468 357.811646,536.095398 357.314209,535.973328 
	C359.195129,534.706421 361.076050,533.439514 362.987305,531.840332 
	C371.782715,526.717957 380.547821,521.927856 389.646576,517.416016 
	C388.704834,519.270203 387.529877,520.942993 386.127563,522.396362 
	C384.527161,524.055115 382.724182,525.518433 381.009186,527.066650 
	C381.625977,527.014587 382.242767,526.962585 382.859558,526.910583 
	C385.844879,530.557129 389.637360,533.824097 391.581970,537.959961 
	C393.420380,541.869995 395.641968,543.714600 399.649078,543.963928 
	C388.377716,550.481262 377.106323,556.998657 365.455627,563.571167 
z"/>
<path fill="#5084B4" opacity="1.000000" stroke="none" 
	d="
M357.004822,440.000000 
	C356.994720,425.185822 357.003418,410.871582 356.957245,396.557526 
	C356.948059,393.709839 357.208527,390.903137 360.621826,390.438721 
	C365.051910,389.835999 365.832306,392.821686 365.826172,396.420105 
	C365.798950,412.398468 365.832123,428.376892 365.831512,444.355316 
	C365.831024,457.837189 365.956085,471.322357 365.643982,484.797211 
	C365.599609,486.713440 363.715240,489.812164 362.130096,490.220795 
	C358.462524,491.166229 356.951019,488.659454 356.973236,484.940186 
	C357.061798,470.127228 357.006409,455.313477 357.004822,440.000000 
z"/>
<path fill="#406FA0" opacity="1.000000" stroke="none" 
	d="
M251.289246,546.402893 
	C252.129196,545.796021 252.666595,545.400940 253.228088,545.043762 
	C265.154846,537.458130 267.648376,537.580566 278.655060,546.682373 
	C279.688568,547.536987 280.195618,549.093201 280.776978,550.399353 
	C281.026489,550.960022 280.837921,551.714478 280.853149,552.380798 
	C281.166809,566.122864 280.123657,567.822876 267.307037,572.999512 
	C265.826813,573.597351 263.757935,573.402527 262.171478,572.906006 
	C260.141479,572.270569 258.312073,570.977722 256.417114,569.930298 
	C248.829697,565.736511 245.698013,556.806030 249.114807,548.921021 
	C249.492371,548.049744 250.358398,547.390137 251.289246,546.402893 
z"/>
<path fill="#5190C7" opacity="1.000000" stroke="none" 
	d="
M373.658142,516.249390 
	C370.798309,515.313538 368.235962,514.324646 365.387299,513.225281 
	C366.928864,509.660187 368.449280,506.144012 369.965302,502.242615 
	C381.239380,494.638397 389.370300,484.656250 395.166626,472.730133 
	C396.383362,470.226654 397.766693,469.390533 400.531219,469.615814 
	C412.139191,470.561676 412.807617,471.825104 407.425415,482.202240 
	C400.515350,495.525177 390.614441,505.986267 377.340820,514.051514 
	C376.507111,514.457825 376.253357,514.697266 375.999634,514.936707 
	C375.318268,515.356567 374.636932,515.776428 373.658142,516.249390 
z"/>
<path fill="#5598D0" opacity="1.000000" stroke="none" 
	d="
M356.976929,360.836365 
	C377.382355,366.140930 392.933258,378.195160 404.844696,395.293915 
	C407.008911,398.400665 406.524231,400.805023 402.874847,402.361694 
	C401.811676,402.815216 400.800354,403.441132 399.857513,404.116730 
	C396.670380,406.400604 394.351929,405.836700 392.006775,402.588898 
	C383.833710,391.269989 373.214996,382.944702 360.237549,377.728271 
	C357.489075,376.623474 354.611511,375.839844 351.326721,374.477997 
	C349.574738,373.365601 348.289398,372.683411 347.434387,372.003418 
	C350.885315,372.660034 353.883301,373.470551 356.934692,373.912384 
	C358.873535,374.193146 361.742645,374.702972 362.654541,373.704102 
	C363.744904,372.509766 363.679901,369.690002 363.196777,367.810333 
	C362.809570,366.303986 361.071075,365.131592 359.894287,363.845795 
	C358.951447,362.815552 357.951508,361.837555 356.976929,360.836365 
M365.510010,367.447662 
	C365.510010,367.447662 365.545532,367.518494 365.510010,367.447662 
z"/>
<path fill="#3C6899" opacity="1.000000" stroke="none" 
	d="
M312.613983,507.883728 
	C314.174469,510.391083 313.099854,510.976166 310.910675,510.373566 
	C309.485229,509.981201 308.167511,509.208191 306.750183,508.772705 
	C305.316864,508.332397 303.820374,508.097839 302.351501,507.773132 
	C302.044495,509.472015 301.644806,511.161133 301.463837,512.873352 
	C301.347626,513.972534 301.553406,515.105835 301.614655,516.220459 
	C306.783966,515.957703 308.719666,520.472656 311.964111,523.465515 
	C290.928223,518.469299 275.466522,505.687164 264.238800,487.432068 
	C263.615479,486.418610 263.736053,483.851868 264.482239,483.283020 
	C267.588806,480.914856 271.067780,479.035217 274.824951,476.720825 
	C283.898346,491.704620 296.113220,502.190674 312.613983,507.883728 
z"/>
<path fill="#5190C7" opacity="1.000000" stroke="none" 
	d="
M399.844055,543.748779 
	C395.641968,543.714600 393.420380,541.869995 391.581970,537.959961 
	C389.637360,533.824097 385.844879,530.557129 382.859558,526.910583 
	C382.242767,526.962585 381.625977,527.014587 381.009186,527.066650 
	C382.724182,525.518433 384.527161,524.055115 386.127563,522.396362 
	C387.529877,520.942993 388.704834,519.270203 389.979309,517.321838 
	C394.723877,512.283875 399.469330,507.618378 404.493683,502.761719 
	C408.002472,504.591309 410.424072,506.898346 409.617767,511.344849 
	C409.453491,512.250854 411.251770,514.002258 412.506470,514.580994 
	C415.810699,516.105164 416.483215,517.798828 414.681061,521.184509 
	C412.947754,524.440918 412.402924,528.318054 410.766266,531.641907 
	C409.673096,533.861938 407.690491,535.697144 405.905334,537.506653 
	C404.463776,538.967834 402.722260,540.132996 401.075317,541.787109 
	C400.704224,542.607727 400.371643,543.070679 399.844055,543.748779 
z"/>
<path fill="#4A81B4" opacity="1.000000" stroke="none" 
	d="
M331.050842,318.728455 
	C329.702423,320.181824 328.169342,321.242828 326.995392,322.611786 
	C321.408356,329.126892 321.703033,328.988525 326.400909,336.247986 
	C327.483795,337.921387 326.116455,341.180389 325.967896,342.747437 
	C328.764771,346.453979 331.366394,349.901764 333.949463,353.740906 
	C333.766052,354.122009 333.543457,354.178131 333.444702,354.092133 
	C324.565308,346.354980 315.100372,349.465057 305.629791,352.567352 
	C304.850586,352.822571 304.039886,352.981537 302.565857,353.217712 
	C301.593262,353.482819 301.298615,353.715485 301.003998,353.948181 
	C300.651550,354.063995 300.299103,354.179840 299.673248,354.338898 
	C297.645844,352.858093 295.891815,351.334076 294.086487,349.476990 
	C294.035187,349.143951 294.355255,348.906860 294.856293,349.013611 
	C298.643890,350.524933 297.743256,347.830292 298.076080,346.343231 
	C298.171844,346.207733 298.352722,346.071228 298.351196,345.936829 
	C298.248718,336.987549 305.017426,334.068176 311.425964,330.512848 
	C315.569702,328.213989 319.158447,324.932098 323.092957,322.232147 
	C325.381348,320.661774 327.861481,319.370789 330.624329,317.965637 
	C331.006165,318.144135 331.018951,318.311096 331.050842,318.728455 
z"/>
<path fill="#4577A8" opacity="1.000000" stroke="none" 
	d="
M284.001221,387.998779 
	C282.940979,389.978851 281.880737,391.958954 280.820587,393.938904 
	C276.046478,390.956360 275.782990,387.233276 279.239990,383.670532 
	C283.573944,379.203949 287.683777,374.519958 291.953613,369.601349 
	C292.703644,368.832764 293.390411,368.392609 294.769928,367.942535 
	C296.976685,366.988434 298.490692,366.044220 300.004700,365.100037 
	C300.322449,364.981171 300.640198,364.862274 301.547913,364.796387 
	C302.762909,364.370544 303.387909,363.891663 304.012939,363.412811 
	C305.107422,362.961823 306.201874,362.510803 307.713501,362.361786 
	C308.364990,364.385742 308.053986,366.491669 308.942291,367.753113 
	C311.072357,370.777954 310.783569,373.786469 310.002228,376.988983 
	C302.588074,381.321564 295.173920,385.654144 287.450134,390.153625 
	C286.320831,389.578400 285.501221,388.836243 284.297211,387.783630 
	C283.628845,387.169861 283.344849,386.866608 283.060852,386.563324 
	C282.898010,386.754883 282.735138,386.946472 282.572266,387.138062 
	C283.048615,387.424957 283.524933,387.711853 284.001221,387.998779 
M289.448547,386.490326 
	C289.448547,386.490326 289.516937,386.456848 289.448547,386.490326 
z"/>
<path fill="#F4F6F6" opacity="1.000000" stroke="none" 
	d="
M511.969482,387.740417 
	C518.130493,391.080872 520.741516,395.159973 519.730164,400.092529 
	C518.709412,405.071014 515.649719,408.378876 510.622009,409.630219 
	C505.981354,410.785217 501.249817,408.837341 498.525116,404.638794 
	C495.747498,400.358704 496.131317,395.945496 498.912842,391.994537 
	C501.960724,387.665314 506.272491,385.901306 511.969482,387.740417 
z"/>
<path fill="#5190C7" opacity="1.000000" stroke="none" 
	d="
M356.861267,360.780548 
	C357.951508,361.837555 358.951447,362.815552 359.894287,363.845795 
	C361.071075,365.131592 362.809570,366.303986 363.196777,367.810333 
	C363.679901,369.690002 363.744904,372.509766 362.654541,373.704102 
	C361.742645,374.702972 358.873535,374.193146 356.934692,373.912384 
	C353.883301,373.470551 350.885315,372.660034 347.035828,371.945251 
	C341.636017,370.665100 336.971344,369.705261 332.537384,368.105743 
	C330.589233,367.402924 329.111084,365.397125 327.419525,363.982971 
	C329.226715,362.842621 330.987030,361.616058 332.860779,360.598297 
	C333.797119,360.089661 334.940643,359.962494 336.111481,359.628235 
	C335.645996,358.927216 335.294403,358.397675 334.942780,357.868134 
	C340.757111,358.344208 346.571442,358.820251 352.908020,359.826416 
	C354.478424,360.543152 355.526520,360.729828 356.574646,360.916504 
	C356.574646,360.916504 356.745575,360.724731 356.861267,360.780548 
z"/>
<path fill="#3C628B" opacity="1.000000" stroke="none" 
	d="
M218.952545,431.634949 
	C218.816940,429.895874 218.203339,428.291779 218.742371,427.341553 
	C219.511337,425.985962 221.125107,425.109589 222.378052,424.028534 
	C223.237396,425.192657 224.754028,426.307037 224.846603,427.529266 
	C225.348068,434.151123 225.445312,440.802307 225.779556,447.438446 
	C226.372498,459.210938 227.146194,470.976105 227.557434,482.754303 
	C227.623764,484.654053 226.354721,488.169006 225.449554,488.254517 
	C222.062119,488.574463 221.370605,485.778748 221.245682,482.849243 
	C220.523697,465.918854 219.747284,448.990784 218.952545,431.634949 
z"/>
<path fill="#4A81B4" opacity="1.000000" stroke="none" 
	d="
M334.585846,357.751617 
	C335.294403,358.397675 335.645996,358.927216 336.111481,359.628235 
	C334.940643,359.962494 333.797119,360.089661 332.860779,360.598297 
	C330.987030,361.616058 329.226715,362.842621 327.419525,363.982971 
	C329.111084,365.397125 330.589233,367.402924 332.537384,368.105743 
	C336.971344,369.705261 341.636017,370.665100 346.605530,371.943054 
	C348.289398,372.683411 349.574738,373.365601 350.960205,374.352295 
	C337.448486,372.162659 323.990875,372.383514 310.391052,376.967102 
	C310.783569,373.786469 311.072357,370.777954 308.942291,367.753113 
	C308.053986,366.491669 308.364990,364.385742 308.073181,362.374756 
	C315.094574,360.614227 322.162384,359.085571 329.260742,357.714966 
	C330.862213,357.405701 332.570038,357.647125 334.585846,357.751617 
M316.478699,372.126099 
	C316.307373,372.287384 316.136047,372.448669 315.964722,372.609955 
	C316.224854,372.678650 316.484955,372.747375 316.745087,372.816101 
	C316.781311,372.609375 316.817566,372.402618 316.478699,372.126099 
M317.509094,370.449524 
	C317.509094,370.449524 317.542297,370.516724 317.509094,370.449524 
z"/>
<path fill="#3C628B" opacity="1.000000" stroke="none" 
	d="
M1386.041870,491.578491 
	C1386.830811,488.725342 1388.027466,488.656067 1389.364746,490.700500 
	C1390.170898,491.932831 1390.729492,493.327026 1391.726929,495.294739 
	C1393.569214,493.085083 1395.142700,491.197937 1397.438721,488.444153 
	C1397.438721,493.406006 1397.438721,497.289093 1397.438721,501.172180 
	C1397.061890,501.221222 1396.685059,501.270294 1396.308228,501.319336 
	C1395.976685,499.767151 1395.645142,498.214996 1395.174561,496.011780 
	C1393.976440,497.408142 1393.104004,498.424927 1392.104858,499.589325 
	C1391.225708,498.973114 1390.339233,498.351715 1389.131348,497.505096 
	C1388.383911,498.885284 1387.746826,500.061707 1387.109741,501.238098 
	C1386.746582,501.221954 1386.383545,501.205811 1386.020508,501.189636 
	C1386.020508,498.118713 1386.020508,495.047791 1386.041870,491.578491 
z"/>
<path fill="#5598D0" opacity="1.000000" stroke="none" 
	d="
M418.490479,391.409302 
	C419.624084,391.582520 421.567291,392.197876 421.574402,392.834839 
	C421.629272,397.754608 421.344757,402.680664 421.044830,407.597443 
	C421.018250,408.033447 420.135071,408.417206 419.279633,408.885071 
	C418.740784,403.250488 418.572021,397.555969 418.490479,391.409302 
z"/>
<path fill="#3C628B" opacity="1.000000" stroke="none" 
	d="
M1383.322510,489.034851 
	C1382.883545,492.949890 1382.059692,496.810181 1381.152222,501.061523 
	C1379.557251,500.919037 1377.614136,500.745453 1375.671143,500.571869 
	C1375.666992,500.292297 1375.662964,500.012695 1375.658936,499.733124 
	C1376.913940,499.611511 1378.168945,499.489868 1380.569946,499.257202 
	C1379.659302,495.719604 1378.843628,492.550934 1377.924438,488.980042 
	C1378.841431,488.980042 1380.889526,488.980042 1383.322510,489.034851 
z"/>
<path fill="#4A81B4" opacity="1.000000" stroke="none" 
	d="
M336.276367,354.561218 
	C336.868500,352.284515 337.976593,350.464264 341.104858,352.117615 
	C339.816040,353.074219 338.213806,353.870483 336.276367,354.561218 
z"/>
<path fill="#3C6899" opacity="1.000000" stroke="none" 
	d="
M299.024536,531.272827 
	C298.387695,532.223816 297.583618,532.896912 296.779541,533.570068 
	C296.209442,532.536865 295.639313,531.503601 295.102661,530.087646 
	C296.376526,530.134888 297.616882,530.564880 299.024536,531.272827 
z"/>
<path fill="#5190C7" opacity="1.000000" stroke="none" 
	d="
M396.095856,369.310883 
	C397.271942,369.831635 398.602509,370.635895 399.913269,371.834045 
	C398.679077,371.350067 397.464691,370.472229 396.095856,369.310883 
z"/>
<path fill="#406FA0" opacity="1.000000" stroke="none" 
	d="
M299.667450,365.129425 
	C298.490692,366.044220 296.976685,366.988434 295.073761,367.897919 
	C296.233307,366.961761 297.781769,366.060303 299.667450,365.129425 
z"/>
<path fill="#406FA0" opacity="1.000000" stroke="none" 
	d="
M297.770782,346.387817 
	C297.743256,347.830292 298.643890,350.524933 295.049622,348.965790 
	C295.649780,348.018311 296.557648,347.225342 297.770782,346.387817 
z"/>
<path fill="#5598D0" opacity="1.000000" stroke="none" 
	d="
M410.363281,380.192505 
	C411.115479,380.467377 411.988770,381.017365 412.880310,381.910339 
	C412.093842,381.658112 411.289062,381.062866 410.363281,380.192505 
z"/>
<path fill="#5598D0" opacity="1.000000" stroke="none" 
	d="
M356.367035,360.660553 
	C355.526520,360.729828 354.478424,360.543152 353.251648,360.099854 
	C354.101776,360.030396 355.130615,360.217529 356.367035,360.660553 
z"/>
<path fill="#406FA0" opacity="1.000000" stroke="none" 
	d="
M303.709045,363.384949 
	C303.387909,363.891663 302.762909,364.370544 301.803406,364.821106 
	C302.114288,364.314209 302.759705,363.835632 303.709045,363.384949 
z"/>
<path fill="#4577A8" opacity="1.000000" stroke="none" 
	d="
M329.606476,512.065796 
	C329.124176,512.263550 328.277069,512.393555 327.229675,512.318604 
	C327.766846,512.075073 328.504242,512.036499 329.606476,512.065796 
z"/>
<path fill="#406FA0" opacity="1.000000" stroke="none" 
	d="
M301.290161,353.923889 
	C301.298615,353.715485 301.593262,353.482819 302.178009,353.225311 
	C302.170868,353.433502 301.873566,353.666565 301.290161,353.923889 
z"/>
<path fill="#487DB1" opacity="1.000000" stroke="none" 
	d="
M376.271057,514.911621 
	C376.253357,514.697266 376.507111,514.457825 377.024200,514.170654 
	C377.039185,514.377563 376.790833,514.632080 376.271057,514.911621 
z"/>
<path fill="#406FA0" opacity="1.000000" stroke="none" 
	d="
M281.345947,462.314514 
	C281.243958,462.118286 281.414734,461.755127 281.830170,461.213562 
	C281.922791,461.406006 281.770782,461.776764 281.345947,462.314514 
z"/>
<path fill="#5598D0" opacity="1.000000" stroke="none" 
	d="
M413.738770,383.209106 
	C413.818115,383.195435 413.799255,383.219666 413.801758,383.199341 
	C413.804230,383.179016 413.659393,383.222778 413.738770,383.209106 
z"/>
<path fill="#5598D0" opacity="1.000000" stroke="none" 
	d="
M415.814667,385.410400 
	C416.045074,385.378357 416.370300,385.661224 416.784729,386.265686 
	C416.552429,386.299988 416.230957,386.012634 415.814667,385.410400 
z"/>
<path fill="#0B1E30" opacity="1.000000" stroke="none" 
	d="
M785.947632,473.840149 
	C782.060852,465.273773 782.288574,457.018066 785.897644,448.888275 
	C789.442932,440.902130 795.933289,437.049591 804.516907,437.221558 
	C813.344177,437.398407 820.884338,440.950684 823.594238,449.708801 
	C825.383789,455.492767 825.853149,462.159241 825.024902,468.170380 
	C823.718384,477.652618 816.897461,483.617615 808.330017,484.890442 
	C798.923767,486.287872 791.069458,482.509613 785.947632,473.840149 
z"/>
<path fill="#061E34" opacity="1.000000" stroke="none" 
	d="
M1284.933105,461.890686 
	C1275.962280,461.889954 1267.482056,461.889954 1257.856323,461.889954 
	C1264.088257,445.440094 1270.044434,429.718018 1276.345581,413.085419 
	C1282.673828,429.507935 1288.630737,444.966766 1295.152466,461.891449 
	C1291.149414,461.891449 1288.286621,461.891449 1284.933105,461.890686 
z"/>
<path fill="#0B1E30" opacity="1.000000" stroke="none" 
	d="
M700.141785,469.934570 
	C706.178467,469.040466 711.857422,468.160400 717.570251,467.714447 
	C721.679565,467.393646 725.834106,467.652039 729.822876,467.652039 
	C733.482666,482.063019 720.454651,493.132141 705.204041,489.246185 
	C698.199097,487.461304 694.839111,483.268463 696.025940,476.787445 
	C696.459595,474.418915 698.494202,472.343567 700.141785,469.934570 
z"/>
<path fill="#5190C7" opacity="1.000000" stroke="none" 
	d="
M373.879883,343.795197 
	C373.591797,344.197144 373.178711,344.391815 372.765625,344.586487 
	C372.715454,344.164886 372.665253,343.743317 372.806396,343.159119 
	C373.298035,343.132355 373.550385,343.329498 373.879883,343.795197 
z"/>
<path fill="#4A81B4" opacity="1.000000" stroke="none" 
	d="
M336.837372,318.766418 
	C336.266479,319.001556 335.492645,319.001862 334.330994,319.001556 
	C334.840240,318.844513 335.737366,318.688049 336.837372,318.766418 
z"/>
<path fill="#5190C7" opacity="1.000000" stroke="none" 
	d="
M372.838074,340.803406 
	C372.550323,341.007202 372.107727,341.006561 371.333191,341.005432 
	C371.561920,340.869659 372.122589,340.734314 372.838074,340.803406 
z"/>
<path fill="#5190C7" opacity="1.000000" stroke="none" 
	d="
M373.135651,341.910583 
	C372.992523,341.842987 372.991547,341.675903 372.991211,341.258301 
	C373.138855,341.173370 373.305084,341.327087 373.420258,341.512512 
	C373.451660,341.563049 373.329529,341.708954 373.135651,341.910583 
z"/>
<path fill="#0B1E30" opacity="1.000000" stroke="none" 
	d="
M914.970703,446.298462 
	C915.827942,449.321930 916.557190,451.981171 917.403870,455.068726 
	C903.790588,455.068726 890.891907,455.068726 877.987915,455.068726 
	C878.170532,445.659363 883.840149,438.085663 892.145813,435.958099 
	C900.485596,433.821747 911.032837,436.842346 914.970703,446.298462 
z"/>
<path fill="#061E34" opacity="1.000000" stroke="none" 
	d="
M1081.308838,437.022339 
	C1094.167236,432.648682 1104.617065,437.163483 1108.210205,448.458069 
	C1108.793335,450.291595 1108.850830,452.292389 1109.234253,454.747437 
	C1096.041626,454.747437 1083.379761,454.747437 1070.164795,454.747437 
	C1071.347656,447.117035 1073.960693,440.850342 1081.308838,437.022339 
z"/>
<path fill="#061E34" opacity="1.000000" stroke="none" 
	d="
M279.682953,457.226196 
	C276.321930,459.460938 272.941650,461.388641 269.105194,463.576508 
	C265.256775,455.233429 265.173615,447.077301 265.051025,438.459351 
	C265.059906,437.571106 265.122131,437.142242 265.352234,436.170959 
	C265.553009,435.080780 265.585938,434.533020 265.618835,433.985229 
	C265.765991,432.924927 265.913147,431.864594 266.219421,430.060791 
	C266.664246,427.553833 266.949951,425.790314 267.235626,424.026825 
	C271.207977,419.362732 274.152740,424.032867 277.407990,424.724670 
	C275.808289,429.177460 273.947998,433.176056 272.953400,437.379517 
	C271.114258,445.152374 275.858368,450.934418 279.682953,457.226196 
z"/>
<path fill="#3C6899" opacity="1.000000" stroke="none" 
	d="
M266.864868,424.078979 
	C266.949951,425.790314 266.664246,427.553833 266.208618,429.658264 
	C262.296631,427.740967 264.186432,425.919830 266.864868,424.078979 
z"/>
<path fill="#3C6899" opacity="1.000000" stroke="none" 
	d="
M265.368927,434.056396 
	C265.585938,434.533020 265.553009,435.080780 265.340332,435.845642 
	C265.146759,435.417694 265.132874,434.772644 265.368927,434.056396 
z"/>
<path fill="#061E34" opacity="1.000000" stroke="none" 
	d="
M411.003784,447.886749 
	C410.637390,447.133545 410.271027,446.380371 410.046539,444.926819 
	C409.966766,439.213593 409.745087,434.200653 409.523438,429.187744 
	C409.523438,429.187744 409.826294,429.100769 410.234955,428.884613 
	C413.432190,427.078094 416.220795,425.487762 419.878082,423.402008 
	C419.878082,432.568390 419.878082,440.633423 419.878082,448.698425 
	C418.873779,448.713074 417.869476,448.727753 416.180908,448.521790 
	C413.998993,448.163025 412.501404,448.024902 411.003784,447.886749 
z"/>
<path fill="#5598D0" opacity="1.000000" stroke="none" 
	d="
M419.962219,449.052185 
	C419.878082,440.633423 419.878082,432.568390 419.878082,423.402008 
	C416.220795,425.487762 413.432190,427.078094 410.314392,428.748596 
	C411.135284,424.517944 415.125488,421.731659 422.616333,420.337677 
	C422.746033,422.454834 422.974945,424.504333 422.978577,426.554199 
	C422.991608,433.900452 423.006500,441.248505 422.850128,448.592255 
	C422.798096,451.036774 421.695740,451.588196 419.962219,449.052185 
z"/>
<path fill="#5598D0" opacity="1.000000" stroke="none" 
	d="
M409.129517,429.173889 
	C409.745087,434.200653 409.966766,439.213593 410.016785,444.599457 
	C408.628571,440.510315 407.300354,436.072266 406.329437,431.557343 
	C406.200623,430.958405 407.888885,429.968719 409.129517,429.173889 
z"/>
<path fill="#5598D0" opacity="1.000000" stroke="none" 
	d="
M411.081848,448.247009 
	C412.501404,448.024902 413.998993,448.163025 415.801727,448.517212 
	C414.457855,448.691254 412.808868,448.649261 411.081848,448.247009 
z"/>
<path fill="#3C6899" opacity="1.000000" stroke="none" 
	d="
M320.988373,523.306213 
	C321.029083,523.306152 320.947662,523.306274 320.988373,523.306213 
z"/>
<path fill="#406FA0" opacity="1.000000" stroke="none" 
	d="
M249.810394,407.388428 
	C250.009491,407.348389 250.123459,407.400238 250.237427,407.452087 
	C250.066711,407.461487 249.895981,407.470917 249.810394,407.388428 
z"/>
<path fill="#4373A5" opacity="1.000000" stroke="none" 
	d="
M348.998474,570.997803 
	C348.996979,570.995667 349.232544,570.611816 349.232544,570.611816 
	C349.232544,570.611816 349.218994,570.902222 349.111572,570.952576 
	C349.004120,571.002930 349.000000,571.000000 348.998474,570.997803 
z"/>
<path fill="#5190C7" opacity="1.000000" stroke="none" 
	d="
M365.527771,367.483093 
	C365.545532,367.518494 365.510010,367.447662 365.527771,367.483093 
z"/>
<path fill="#406FA0" opacity="1.000000" stroke="none" 
	d="
M284.000610,387.999390 
	C283.524933,387.711853 283.048615,387.424957 282.572266,387.138062 
	C282.735138,386.946472 282.898010,386.754883 283.060852,386.563324 
	C283.344849,386.866608 283.628845,387.169861 283.955811,387.737183 
	C283.998779,388.001221 284.000000,388.000000 284.000610,387.999390 
z"/>
<path fill="#406FA0" opacity="1.000000" stroke="none" 
	d="
M289.482727,386.473572 
	C289.516937,386.456848 289.448547,386.490326 289.482727,386.473572 
z"/>
<path fill="#4577A8" opacity="1.000000" stroke="none" 
	d="
M316.666260,372.161011 
	C316.817566,372.402618 316.781311,372.609375 316.745087,372.816101 
	C316.484955,372.747375 316.224854,372.678650 315.964722,372.609955 
	C316.136047,372.448669 316.307373,372.287384 316.666260,372.161011 
z"/>
<path fill="#4577A8" opacity="1.000000" stroke="none" 
	d="
M317.525696,370.483124 
	C317.542297,370.516724 317.509094,370.449524 317.525696,370.483124 
z"/>
</svg>